<mxfile host="app.diagrams.net" modified="2021-10-20T11:40:09.742Z" agent="5.0 (Windows NT 10.0; Win64; x64) AppleWebKit/537.36 (KHTML, like Gecko) Chrome/94.0.4606.81 Safari/537.36" etag="i8hzf34qyxijuM4J5syW" version="15.4.3" type="github">
  <diagram id="jK6_b75PUJQNhEmS_nUD" name="Page-1">
    <mxGraphModel dx="1422" dy="705" grid="1" gridSize="10" guides="1" tooltips="1" connect="1" arrows="1" fold="1" page="1" pageScale="1" pageWidth="827" pageHeight="1169" math="0" shadow="0">
      <root>
        <mxCell id="0" />
        <mxCell id="1" parent="0" />
        <mxCell id="mRdu22Ob3dlRshEJ7SqW-1" value="C1111X-8p" style="shape=mxgraph.cisco.routers.router;sketch=0;html=1;pointerEvents=1;dashed=0;fillColor=#036897;strokeColor=#ffffff;strokeWidth=2;verticalLabelPosition=bottom;verticalAlign=top;align=center;outlineConnect=0;" vertex="1" parent="1">
          <mxGeometry x="375" y="270" width="78" height="53" as="geometry" />
        </mxCell>
        <mxCell id="mRdu22Ob3dlRshEJ7SqW-14" style="edgeStyle=orthogonalEdgeStyle;rounded=0;orthogonalLoop=1;jettySize=auto;html=1;" edge="1" parent="1" source="mRdu22Ob3dlRshEJ7SqW-2" target="mRdu22Ob3dlRshEJ7SqW-3">
          <mxGeometry relative="1" as="geometry" />
        </mxCell>
        <mxCell id="mRdu22Ob3dlRshEJ7SqW-16" value="Подключение коммутаторов&lt;br&gt;порты 1-8" style="edgeLabel;html=1;align=center;verticalAlign=middle;resizable=0;points=[];" vertex="1" connectable="0" parent="mRdu22Ob3dlRshEJ7SqW-14">
          <mxGeometry x="0.2644" y="1" relative="1" as="geometry">
            <mxPoint as="offset" />
          </mxGeometry>
        </mxCell>
        <mxCell id="mRdu22Ob3dlRshEJ7SqW-2" value="SG220-26" style="shape=mxgraph.cisco.switches.workgroup_switch;sketch=0;html=1;pointerEvents=1;dashed=0;fillColor=#036897;strokeColor=#ffffff;strokeWidth=2;verticalLabelPosition=bottom;verticalAlign=top;align=center;outlineConnect=0;" vertex="1" parent="1">
          <mxGeometry x="60" y="273" width="101" height="50" as="geometry" />
        </mxCell>
        <mxCell id="mRdu22Ob3dlRshEJ7SqW-3" value="" style="shape=mxgraph.cisco.switches.workgroup_switch;sketch=0;html=1;pointerEvents=1;dashed=0;fillColor=#036897;strokeColor=#ffffff;strokeWidth=2;verticalLabelPosition=bottom;verticalAlign=top;align=center;outlineConnect=0;" vertex="1" parent="1">
          <mxGeometry x="60" y="410" width="101" height="50" as="geometry" />
        </mxCell>
        <mxCell id="mRdu22Ob3dlRshEJ7SqW-4" value="" style="shape=mxgraph.cisco.switches.workgroup_switch;sketch=0;html=1;pointerEvents=1;dashed=0;fillColor=#036897;strokeColor=#ffffff;strokeWidth=2;verticalLabelPosition=bottom;verticalAlign=top;align=center;outlineConnect=0;" vertex="1" parent="1">
          <mxGeometry x="60" y="460" width="101" height="50" as="geometry" />
        </mxCell>
        <mxCell id="mRdu22Ob3dlRshEJ7SqW-5" value="" style="shape=mxgraph.cisco.switches.workgroup_switch;sketch=0;html=1;pointerEvents=1;dashed=0;fillColor=#036897;strokeColor=#ffffff;strokeWidth=2;verticalLabelPosition=bottom;verticalAlign=top;align=center;outlineConnect=0;" vertex="1" parent="1">
          <mxGeometry x="60" y="510" width="101" height="50" as="geometry" />
        </mxCell>
        <mxCell id="mRdu22Ob3dlRshEJ7SqW-6" value="" style="shape=mxgraph.cisco.switches.workgroup_switch;sketch=0;html=1;pointerEvents=1;dashed=0;fillColor=#036897;strokeColor=#ffffff;strokeWidth=2;verticalLabelPosition=bottom;verticalAlign=top;align=center;outlineConnect=0;" vertex="1" parent="1">
          <mxGeometry x="60" y="560" width="101" height="50" as="geometry" />
        </mxCell>
        <mxCell id="mRdu22Ob3dlRshEJ7SqW-7" value="" style="shape=mxgraph.cisco.switches.workgroup_switch;sketch=0;html=1;pointerEvents=1;dashed=0;fillColor=#036897;strokeColor=#ffffff;strokeWidth=2;verticalLabelPosition=bottom;verticalAlign=top;align=center;outlineConnect=0;" vertex="1" parent="1">
          <mxGeometry x="60" y="610" width="101" height="50" as="geometry" />
        </mxCell>
        <mxCell id="mRdu22Ob3dlRshEJ7SqW-8" value="" style="shape=mxgraph.cisco.switches.workgroup_switch;sketch=0;html=1;pointerEvents=1;dashed=0;fillColor=#036897;strokeColor=#ffffff;strokeWidth=2;verticalLabelPosition=bottom;verticalAlign=top;align=center;outlineConnect=0;" vertex="1" parent="1">
          <mxGeometry x="60" y="660" width="101" height="50" as="geometry" />
        </mxCell>
        <mxCell id="mRdu22Ob3dlRshEJ7SqW-12" value="" style="shape=mxgraph.cisco.switches.workgroup_switch;sketch=0;html=1;pointerEvents=1;dashed=0;fillColor=#036897;strokeColor=#ffffff;strokeWidth=2;verticalLabelPosition=bottom;verticalAlign=top;align=center;outlineConnect=0;" vertex="1" parent="1">
          <mxGeometry x="60" y="710" width="101" height="50" as="geometry" />
        </mxCell>
        <mxCell id="mRdu22Ob3dlRshEJ7SqW-13" value="" style="shape=mxgraph.cisco.switches.workgroup_switch;sketch=0;html=1;pointerEvents=1;dashed=0;fillColor=#036897;strokeColor=#ffffff;strokeWidth=2;verticalLabelPosition=bottom;verticalAlign=top;align=center;outlineConnect=0;" vertex="1" parent="1">
          <mxGeometry x="60" y="760" width="101" height="50" as="geometry" />
        </mxCell>
      </root>
    </mxGraphModel>
  </diagram>
</mxfile>
